<?xml version="1.0" standalone="no"?>
<!DOCTYPE svg PUBLIC "-//W3C//DTD SVG 20010904//EN"
 "http://www.w3.org/TR/2001/REC-SVG-20010904/DTD/svg10.dtd">
<svg version="1.0" xmlns="http://www.w3.org/2000/svg"
 width="5000.000000pt" height="2000.000000pt" viewBox="0 0 5000.000000 2000.000000"
 preserveAspectRatio="xMidYMid meet">

<g transform="translate(0.000000,2000.000000) scale(0.100000,-0.100000)"
fill="#3e3e42" stroke="none">
<path d="M0 10000 l0 -10000 25000 0 25000 0 0 10000 0 10000 -25000 0 -25000
0 0 -10000z m7150 9526 c701 -83 1296 -283 1880 -631 958 -572 1690 -1485
2041 -2547 167 -504 237 -995 226 -1573 -6 -300 -20 -463 -62 -712 -206 -1220
-911 -2321 -1945 -3040 -69 -48 -131 -93 -139 -101 -8 -7 -24 -20 -37 -29 -32
-20 -41 -12 -87 79 -36 71 -94 152 -228 320 -316 397 -633 1063 -793 1670
l-37 137 41 168 c92 376 143 642 175 918 23 200 31 532 16 728 l-12 162 36
130 c90 326 137 672 154 1136 l7 214 -35 38 c-76 82 -133 85 -206 13 -36 -36
-45 -54 -54 -102 -44 -238 -80 -377 -175 -689 -34 -108 -39 -140 -51 -316 -9
-139 -17 -205 -29 -227 -9 -17 -16 -33 -16 -36 0 -2 36 -24 80 -47 83 -44 150
-93 150 -110 0 -20 -45 -6 -161 51 -109 54 -128 60 -164 54 -35 -5 -46 -2 -74
21 -37 32 -72 97 -96 179 -16 54 -16 78 -5 272 23 378 2 846 -50 1154 -37 214
-105 464 -160 587 -25 56 -32 62 -65 69 -20 3 -59 4 -87 2 -57 -6 -71 -19 -91
-83 -18 -60 -14 -461 13 -1123 l23 -573 -20 -27 c-25 -34 -45 -38 -77 -17 -35
23 -43 60 -56 265 -13 208 -37 449 -86 873 -26 225 -38 383 -44 567 -8 265
-17 326 -61 418 -26 53 -62 72 -135 72 -53 0 -60 -3 -93 -38 -57 -60 -100
-204 -133 -452 -7 -55 -12 -201 -12 -350 0 -256 8 -376 59 -880 l24 -235 -27
-28 c-81 -85 -158 -74 -205 30 -14 32 -51 138 -81 235 -31 98 -105 318 -165
490 -286 818 -345 971 -392 1011 -48 40 -156 8 -187 -55 -24 -52 -34 -143 -29
-283 4 -117 9 -153 31 -220 18 -51 31 -119 37 -190 17 -203 68 -421 179 -775
112 -356 110 -347 120 -610 5 -129 9 -301 9 -381 l1 -146 48 -13 c54 -15 210
-95 297 -153 78 -53 155 -133 216 -226 49 -74 64 -131 35 -131 -13 0 -25 16
-101 132 -63 98 -162 181 -296 248 -117 58 -194 88 -204 78 -3 -2 -10 -72 -15
-154 -6 -82 -16 -174 -24 -205 -28 -122 -109 -209 -193 -209 -52 0 -71 9 -136
63 -43 36 -50 39 -71 28 -55 -30 -122 -91 -161 -146 -44 -64 -68 -76 -73 -35
-4 38 84 150 158 200 l61 41 -23 40 c-44 76 -332 525 -396 618 -129 186 -264
301 -478 408 l-95 47 -81 -12 c-45 -6 -92 -19 -105 -27 -60 -40 -78 -120 -47
-212 44 -130 197 -394 344 -593 225 -305 326 -498 435 -830 59 -180 48 -167
589 -723 301 -310 252 -273 545 -404 140 -62 201 -74 316 -63 171 17 268 86
349 247 19 39 56 189 56 229 0 2 6 4 14 4 20 0 26 -23 26 -95 0 -55 -6 -75
-47 -156 -36 -72 -63 -110 -117 -165 -62 -61 -80 -73 -141 -92 -38 -13 -110
-26 -158 -30 l-88 -7 54 -65 c82 -100 189 -248 315 -435 63 -93 159 -233 212
-310 132 -190 263 -410 386 -650 187 -363 276 -588 314 -789 19 -100 20 -120
9 -131 -17 -16 -245 -49 -495 -71 -220 -20 -715 -14 -924 10 -563 66 -1047
206 -1535 446 -416 204 -755 435 -1102 752 -814 742 -1338 1747 -1477 2833
-41 323 -46 845 -12 1145 126 1081 582 2028 1340 2785 816 814 1819 1269 2991
1359 127 10 717 -3 845 -18z m-435 -2902 c23 -24 14 -38 -31 -46 -70 -12 -124
-10 -124 7 0 17 25 32 77 44 55 13 60 13 78 -5z m38 -163 c20 -20 -7 -31 -74
-31 -55 0 -71 3 -76 16 -3 9 0 20 8 26 16 11 129 2 142 -11z m-937 -12 c11
-18 -31 -51 -66 -52 -45 -3 -49 18 -8 43 37 22 63 26 74 9z m89 -95 c0 -42
-119 -71 -161 -39 -25 20 -8 31 60 39 28 4 58 11 66 16 21 13 35 7 35 -16z
m1460 -84 c0 -22 -6 -26 -59 -38 -39 -8 -63 -9 -69 -3 -23 23 54 73 103 68 19
-1 25 -8 25 -27z m55 -114 c0 -14 -5 -28 -12 -32 -19 -12 -138 -8 -151 5 -23
23 18 36 151 50 6 0 12 -10 12 -23z m14340 -966 l0 -770 -85 0 -85 0 0 770 0
770 85 0 85 0 0 -770z m-7303 695 c238 -45 425 -227 495 -482 31 -113 31 -372
0 -488 -37 -135 -94 -238 -181 -325 -84 -83 -155 -125 -271 -162 -65 -20 -95
-23 -220 -22 -129 0 -154 3 -226 27 -300 99 -468 380 -451 752 15 308 143 530
372 643 134 67 316 88 482 57z m-6309 -231 c12 -8 22 -19 22 -25 0 -18 -30
-21 -108 -10 -77 12 -111 29 -97 51 10 16 152 3 183 -16z m7772 -198 c181 -64
282 -270 267 -541 -13 -239 -122 -417 -297 -487 -44 -18 -76 -22 -160 -22 -95
-1 -110 2 -162 27 -34 17 -77 50 -107 83 l-51 56 0 -316 0 -316 -85 0 -85 0 0
760 0 760 85 0 85 0 0 -92 1 -93 21 30 c57 79 148 143 235 165 53 13 199 5
253 -14z m1132 -6 c161 -61 257 -236 258 -467 l0 -83 -371 0 -372 0 6 -53 c16
-132 72 -219 174 -269 64 -31 73 -33 173 -32 118 1 182 19 271 79 l50 34 -3
-82 -3 -81 -40 -23 c-66 -38 -164 -64 -267 -70 -206 -13 -348 49 -440 191 -52
80 -78 170 -85 291 -17 288 123 514 358 580 76 21 216 14 291 -15z m1183 -9
c77 -38 121 -91 157 -186 21 -57 22 -77 26 -447 l3 -388 -85 0 -86 0 0 330 c0
352 -5 403 -48 483 -81 151 -325 138 -427 -23 -50 -80 -55 -119 -55 -467 l0
-323 -85 0 -85 0 0 520 0 520 85 0 85 0 0 -86 0 -85 57 61 c90 98 172 131 310
126 68 -2 92 -7 148 -35z m1745 15 c181 -64 282 -270 267 -541 -13 -239 -122
-417 -297 -487 -44 -18 -76 -22 -160 -22 -95 -1 -110 2 -162 27 -34 17 -77 50
-107 83 l-51 56 0 -316 0 -316 -85 0 -85 0 0 760 0 760 85 0 85 0 0 -92 1 -93
21 30 c57 79 148 143 235 165 53 13 199 5 253 -14z m1102 -5 c97 -37 161 -119
187 -239 7 -34 11 -187 11 -422 l0 -370 -85 0 -85 0 0 81 0 80 -56 -60 c-34
-37 -77 -71 -112 -88 -52 -25 -67 -28 -162 -28 -128 1 -186 22 -254 95 -105
112 -100 315 9 425 69 68 138 92 366 126 111 16 205 32 208 35 12 11 -19 139
-42 173 -38 57 -85 76 -187 76 -105 0 -181 -24 -268 -81 l-63 -43 3 87 3 87
65 32 c93 45 185 63 305 59 72 -2 116 -9 157 -25z m1642 -5 c58 -29 115 -88
139 -145 l14 -33 22 35 c12 20 47 59 77 86 74 68 162 96 273 88 172 -12 271
-107 300 -287 6 -36 11 -221 11 -417 l0 -353 -84 0 -85 0 -4 368 c-2 247 -7
379 -15 403 -18 53 -52 100 -89 122 -42 24 -127 32 -181 17 -56 -15 -125 -83
-160 -158 l-27 -57 -3 -347 -3 -348 -85 0 -84 0 0 343 c0 378 -6 431 -59 497
-41 50 -83 72 -154 77 -84 6 -157 -30 -204 -100 -55 -83 -57 -94 -60 -469 l-4
-348 -84 0 -85 0 0 520 0 520 85 0 85 0 0 -87 0 -86 28 39 c34 46 91 98 132
119 84 43 217 44 304 1z m-17835 -435 c22 -14 -2 -37 -45 -46 -23 -4 -50 -21
-75 -46 -22 -22 -44 -37 -49 -34 -21 13 -8 50 34 91 36 37 50 44 82 44 22 0
45 -4 53 -9z m30 -75 c9 -11 6 -20 -14 -44 -29 -35 -72 -55 -111 -50 -42 5
-41 26 3 44 21 9 51 27 66 40 33 28 40 29 56 10z m2484 -2287 c86 -30 257 -37
350 -15 86 20 117 20 117 1 0 -32 -74 -57 -215 -70 -133 -13 -326 35 -333 83
-4 27 3 27 81 1z m552 -69 c0 -17 -80 -79 -143 -111 -51 -25 -138 -36 -162
-20 -21 14 -5 26 64 46 57 16 139 55 187 89 28 19 54 17 54 -4z m-969 -2920
c748 -59 1413 -269 2043 -645 683 -408 1275 -1011 1668 -1703 313 -550 504
-1145 580 -1804 25 -216 25 -831 0 -1033 -39 -317 -84 -539 -162 -808 -182
-630 -503 -1220 -936 -1722 -116 -134 -373 -396 -432 -439 -41 -30 -42 -30
-79 26 -13 20 -131 145 -262 278 -273 278 -342 361 -756 915 -261 348 -270
363 -324 510 -144 390 -183 781 -126 1250 6 44 10 105 10 136 0 157 -131 399
-252 469 -29 16 -55 30 -58 30 -4 0 -12 -50 -18 -112 -7 -62 -18 -118 -24
-125 -13 -16 -54 -17 -64 -2 -3 6 -6 53 -5 105 1 51 -3 110 -8 132 -15 54
-242 415 -394 625 l-34 48 -7 -103 c-15 -243 -18 -269 -36 -291 -15 -19 -21
-20 -44 -9 -20 9 -26 19 -26 42 0 37 35 649 55 970 19 306 19 381 -5 585 -28
239 -36 485 -20 695 7 96 13 186 14 200 1 29 -7 29 -72 6 -51 -19 -109 -13
-155 18 -26 17 -37 37 -58 100 l-26 79 -31 -89 c-43 -123 -44 -129 -101 -484
-52 -330 -70 -545 -101 -1250 -6 -129 -13 -253 -16 -275 -12 -90 -78 -185
-156 -226 -45 -23 -131 -25 -180 -5 -39 17 -103 83 -120 124 -48 123 -178 485
-233 652 -63 193 -73 215 -166 370 -96 161 -137 252 -394 868 l-22 54 -27 -45
c-34 -60 -77 -89 -137 -95 -76 -7 -116 5 -165 50 l-44 41 0 -31 c0 -78 47
-273 176 -732 141 -500 171 -591 243 -741 83 -173 127 -284 193 -484 l49 -150
9 -365 c13 -504 13 -806 1 -865 -5 -28 -13 -90 -17 -138 -5 -71 -10 -90 -25
-98 -13 -7 -26 -6 -40 1 -19 11 -20 18 -16 128 2 64 9 168 17 229 11 93 12
152 2 335 -7 122 -14 223 -16 225 -9 10 -170 33 -263 39 -105 6 -109 5 -162
-22 -101 -54 -94 -3 -76 -610 12 -386 20 -543 31 -581 10 -37 36 -79 92 -150
139 -175 260 -356 400 -598 91 -158 260 -330 457 -465 198 -135 519 -500 756
-858 77 -116 173 -221 540 -596 229 -235 269 -283 463 -559 27 -37 61 -81 77
-97 16 -15 29 -35 29 -43 0 -45 -399 -145 -755 -191 -327 -41 -843 -47 -1145
-12 -423 49 -833 151 -1215 301 -165 64 -513 237 -673 334 -641 387 -1190 932
-1587 1576 -106 172 -285 531 -359 722 -214 547 -316 1107 -316 1727 0 611
107 1179 325 1731 67 171 228 495 329 664 577 962 1487 1692 2546 2041 348
115 785 200 1155 223 125 8 565 6 681 -3z m11552 -3574 c8 -4 12 -35 12 -81
l0 -74 -37 16 c-50 20 -130 13 -170 -15 -53 -38 -67 -82 -71 -224 l-4 -128
121 0 121 0 0 -70 0 -70 -120 0 -120 0 0 -450 0 -450 -85 0 -85 0 0 450 0 450
-90 0 -90 0 0 70 0 70 89 0 89 0 4 138 c3 121 7 143 30 193 40 88 121 156 213
180 35 9 176 6 193 -5z m321 -60 c21 -21 26 -36 26 -76 0 -65 -32 -100 -99
-107 -42 -5 -48 -3 -82 31 -34 34 -36 40 -31 83 4 37 12 54 37 76 29 26 39 29
78 24 30 -3 53 -13 71 -31z m-4209 -101 l0 -75 -210 0 -210 0 0 -655 0 -655
-85 0 -85 0 0 655 0 655 -210 0 -210 0 0 75 0 75 505 0 505 0 0 -75z m2166
-334 c106 -20 166 -51 235 -120 76 -76 110 -142 133 -253 81 -391 -138 -698
-499 -698 -250 0 -440 151 -491 388 -29 138 -10 309 46 428 93 193 335 300
576 255z m3069 -30 c77 -38 121 -91 157 -186 21 -57 22 -77 26 -447 l3 -388
-85 0 -86 0 0 330 c0 352 -5 403 -48 483 -81 151 -325 138 -427 -23 -50 -80
-55 -119 -55 -467 l0 -323 -85 0 -85 0 0 520 0 520 85 0 85 0 0 -86 0 -85 57
61 c90 98 172 131 310 126 68 -2 92 -7 148 -35z m993 28 c68 -14 149 -65 189
-117 l33 -44 0 76 0 76 86 0 85 0 -4 -562 c-3 -502 -5 -569 -21 -622 -75 -251
-266 -369 -571 -353 -111 6 -189 22 -257 53 l-38 17 0 83 0 83 71 -34 c101
-48 203 -69 303 -62 104 8 167 31 227 85 84 75 119 182 119 360 l0 95 -29 -40
c-42 -58 -107 -110 -170 -135 -81 -32 -242 -31 -323 1 -105 41 -194 142 -239
271 -30 87 -34 309 -6 410 51 191 168 316 332 356 64 16 150 17 213 3z m1314
-19 c161 -61 257 -236 258 -467 l0 -83 -371 0 -372 0 6 -53 c16 -132 72 -219
174 -269 64 -31 73 -33 173 -32 118 1 182 19 271 79 l50 34 -3 -82 -3 -81 -40
-23 c-66 -38 -164 -64 -267 -70 -206 -13 -348 49 -440 191 -52 80 -78 170 -85
291 -17 288 123 514 358 580 76 21 216 14 291 -15z m1026 24 c21 -6 22 -12 22
-90 l0 -83 -35 15 c-97 40 -208 1 -270 -96 -56 -89 -59 -110 -63 -467 l-3
-333 -85 0 -84 0 0 520 0 520 85 0 85 0 0 -107 0 -108 29 60 c32 68 109 145
163 162 37 12 122 16 156 7z m712 -20 l55 -19 3 -87 3 -87 -43 24 c-87 49
-217 68 -301 44 -22 -6 -55 -25 -74 -43 -29 -27 -36 -41 -40 -82 -9 -92 25
-120 265 -223 170 -72 242 -155 242 -282 0 -139 -92 -238 -261 -280 -108 -28
-240 -23 -344 13 l-70 24 -3 92 -3 92 47 -30 c79 -49 138 -65 249 -65 79 0
108 4 139 19 97 49 101 175 7 240 -20 14 -77 42 -126 62 -181 73 -241 112
-283 183 -23 40 -27 57 -27 126 0 91 15 132 73 191 39 41 135 89 203 104 68
14 226 5 289 -16z m2800 2 c181 -64 282 -270 267 -541 -13 -239 -122 -417
-297 -487 -44 -18 -76 -22 -160 -22 -95 -1 -110 2 -162 27 -34 17 -77 50 -107
83 l-51 56 0 -316 0 -316 -85 0 -85 0 0 760 0 760 85 0 85 0 0 -92 1 -93 21
30 c57 79 148 143 235 165 53 13 199 5 253 -14z m-11842 -403 c62 -225 112
-421 112 -436 0 -38 16 -26 23 17 3 19 61 213 128 430 l122 396 77 0 76 0 112
-407 c62 -225 112 -417 112 -428 0 -11 5 -27 10 -35 8 -12 10 -10 10 10 0 14
50 213 112 443 l113 417 83 0 c63 0 83 -3 79 -12 -2 -7 -73 -241 -157 -520
l-153 -508 -87 0 -87 0 -111 388 c-62 213 -112 395 -112 404 0 9 -4 20 -10 23
-5 3 -10 -2 -10 -12 0 -10 -56 -193 -123 -408 l-123 -390 -84 -3 -85 -2 -154
507 c-85 280 -156 514 -158 521 -4 9 17 12 84 12 l88 0 113 -407z m3982 -113
l0 -520 -85 0 -85 0 0 520 0 520 85 0 85 0 0 -520z m6150 190 c0 -329 6 -402
37 -465 43 -85 129 -131 233 -123 78 6 146 42 192 103 63 83 68 119 68 488 l0
327 85 0 85 0 0 -520 0 -520 -85 0 -85 0 0 88 0 87 -19 -31 c-32 -53 -92 -105
-150 -133 -49 -22 -69 -26 -156 -26 -124 0 -186 19 -253 80 -57 52 -96 130
-111 225 -6 36 -11 216 -11 408 l0 342 85 0 85 0 0 -330z"/>
<path fill='white' d="M6346 19439 c-1437 -92 -2746 -850 -3537 -2049 -574 -869 -838 -1937
-733 -2965 117 -1147 657 -2206 1509 -2964 638 -568 1463 -962 2295 -1096 488
-78 1001 -81 1445 -7 l100 17 -3 35 c-18 209 -335 875 -619 1300 -27 41 -109
163 -183 270 -355 519 -429 616 -509 664 -31 19 -134 71 -230 115 l-173 80
-262 268 c-375 383 -535 553 -563 594 -13 20 -57 128 -97 240 -117 326 -190
465 -372 710 -190 257 -334 500 -383 646 -27 79 -28 182 -2 238 23 50 79 101
128 114 21 6 81 14 133 17 l95 7 96 -50 c293 -153 410 -276 689 -723 228 -366
318 -480 379 -480 66 0 113 81 131 225 21 169 34 682 23 865 -13 192 -25 249
-113 525 -115 360 -170 595 -190 817 -6 65 -19 132 -37 183 -26 77 -27 87 -27
285 0 246 6 276 73 340 74 72 150 87 237 46 89 -41 94 -51 262 -516 142 -392
260 -733 357 -1035 42 -132 82 -246 87 -252 6 -7 16 -13 24 -13 32 0 34 36 13
252 -69 726 -74 1034 -23 1360 41 264 123 406 242 423 95 13 191 -18 230 -72
66 -95 81 -169 92 -478 8 -233 41 -585 75 -794 l13 -86 -4 150 c-18 666 -15
744 26 825 26 51 54 68 130 81 87 14 164 -3 206 -45 87 -88 216 -610 245 -996
12 -162 17 -677 10 -935 -5 -139 -3 -154 18 -209 29 -73 54 -100 80 -86 34 18
50 87 60 270 8 139 15 192 35 260 118 389 159 552 191 753 7 42 87 132 145
162 85 44 189 12 265 -81 l38 -46 -7 -237 c-13 -475 -47 -758 -128 -1096 l-42
-170 -1 -405 c-2 -352 -5 -426 -24 -568 -38 -289 -75 -483 -152 -810 l-51
-214 37 -136 c165 -614 475 -1247 826 -1687 57 -72 119 -155 138 -185 19 -30
36 -56 37 -58 3 -5 182 119 289 199 319 239 641 563 891 894 353 466 634 1053
777 1620 114 448 163 925 139 1343 -56 964 -370 1820 -945 2575 -589 774
-1452 1354 -2407 1618 -484 133 -1008 189 -1494 158z"/>
<path fill='white' d="M14160 15732 c-245 -64 -393 -310 -377 -627 9 -188 69 -330 184 -437
61 -56 112 -83 195 -103 182 -43 377 10 489 133 95 104 136 218 146 402 14
279 -80 498 -253 592 -105 57 -259 73 -384 40z"/>
<path fill='white' d="M15643 15330 c-46 -11 -117 -55 -149 -92 -15 -18 -39 -58 -53 -88
-25 -52 -26 -63 -26 -225 0 -159 2 -173 24 -215 73 -140 210 -199 361 -154 71
21 149 97 178 176 49 132 54 308 11 422 -52 141 -193 213 -346 176z"/>
<path fill='white' d="M16787 15326 c-108 -39 -178 -124 -211 -258 l-6 -28 286 0 287 0 -7
57 c-18 151 -117 244 -260 243 -28 -1 -68 -7 -89 -14z"/>
<path fill='white' d="M19703 15330 c-46 -11 -117 -55 -149 -92 -15 -18 -39 -58 -53 -88
-25 -52 -26 -63 -26 -225 0 -159 2 -173 24 -215 73 -140 210 -199 361 -154 71
21 149 97 178 176 49 132 54 308 11 422 -52 141 -193 213 -346 176z"/>
<path fill='white' d="M20950 14929 c-159 -23 -205 -35 -256 -64 -92 -54 -100 -206 -15
-278 97 -81 282 -51 367 62 44 57 64 126 64 223 0 68 -2 78 -17 77 -10 -1 -74
-10 -143 -20z"/>
<path fill='white' d="M6410 9563 c-36 -2 -137 -10 -225 -19 -1077 -106 -2083 -588 -2830
-1355 -696 -715 -1137 -1630 -1265 -2623 -59 -458 -47 -904 36 -1374 98 -559
315 -1122 622 -1617 561 -902 1414 -1574 2432 -1915 316 -106 646 -177 1010
-217 212 -23 657 -23 870 0 316 35 768 125 753 150 -15 28 -142 209 -197 282
-32 44 -163 186 -290 315 -310 315 -454 472 -506 550 -237 353 -578 751 -734
855 -233 156 -352 277 -511 525 -180 279 -264 411 -293 455 -15 22 -48 64 -73
92 -26 29 -65 80 -87 113 -39 60 -40 64 -46 173 -16 275 -26 535 -32 822 l-7
310 44 49 c84 95 227 126 431 92 54 -9 110 -16 124 -16 l26 0 -6 108 c-15 247
-26 308 -81 462 -64 177 -159 414 -232 575 -52 115 -160 481 -325 1100 l-42
160 -1 185 c0 182 0 186 28 242 65 133 171 174 312 120 53 -20 77 -42 147
-137 72 -96 109 -167 188 -364 152 -381 214 -519 320 -704 102 -179 114 -207
180 -407 76 -228 203 -575 227 -624 59 -115 160 -96 217 39 27 65 29 84 37
255 27 581 64 1107 90 1275 48 303 124 616 165 680 96 147 216 179 376 99 67
-34 97 -78 110 -161 15 -100 15 -318 0 -573 -12 -199 -12 -240 2 -350 27 -219
36 -359 36 -595 0 -201 -17 -484 -36 -602 -5 -36 -2 -45 45 -106 28 -36 51
-74 51 -83 0 -10 23 -52 52 -93 101 -147 291 -416 305 -433 8 -9 45 -26 83
-37 72 -22 165 -79 217 -133 18 -18 60 -83 94 -143 93 -167 106 -257 80 -538
-17 -183 -10 -566 13 -709 31 -196 87 -378 171 -556 36 -75 86 -148 248 -355
225 -290 335 -433 447 -580 41 -55 182 -209 314 -344 l240 -245 146 148 c714
728 1161 1657 1285 2673 86 704 -1 1433 -252 2116 -470 1278 -1476 2270 -2768
2730 -541 192 -1163 285 -1735 258z"/>
<path fill='white' d="M7069 8193 c-33 -20 -43 -69 -29 -143 19 -101 83 -146 164 -117 45
16 64 52 65 125 1 59 -23 96 -78 120 -67 30 -93 33 -122 15z"/>
<path fill='white' d="M5131 8033 c-69 -84 -67 -164 8 -245 l49 -53 70 0 c64 0 73 3 101 29
17 16 38 48 47 71 19 50 12 67 -56 154 -46 58 -88 81 -149 81 -33 0 -44 -6
-70 -37z"/>
<path fill='white' d="M16595 5447 c-66 -22 -99 -43 -142 -90 -52 -56 -69 -90 -88 -169 -28
-120 -14 -261 35 -358 64 -126 224 -193 382 -161 150 32 235 154 245 356 10
204 -56 350 -185 407 -58 26 -191 33 -247 15z"/>
<path fill='white' d="M20725 5451 c-164 -40 -257 -214 -242 -450 8 -119 36 -192 102 -258
64 -64 134 -88 231 -80 112 9 200 74 253 187 23 49 26 70 29 201 5 187 -7 234
-79 313 -75 82 -182 114 -294 87z"/>
<path fill='white' d="M21927 5446 c-108 -39 -178 -124 -211 -258 l-6 -28 286 0 287 0 -7
57 c-18 151 -117 244 -260 243 -28 -1 -68 -7 -89 -14z"/>
<path fill='white' d="M26453 5450 c-46 -11 -117 -55 -149 -92 -15 -18 -39 -58 -53 -88 -25
-52 -26 -63 -26 -225 0 -159 2 -173 24 -215 73 -140 210 -199 361 -154 71 21
149 97 178 176 49 132 54 308 11 422 -52 141 -193 213 -346 176z"/>
</g>
</svg>
