<?xml version="1.0" standalone="no"?>
<!DOCTYPE svg PUBLIC "-//W3C//DTD SVG 20010904//EN"
 "http://www.w3.org/TR/2001/REC-SVG-20010904/DTD/svg10.dtd">
<svg version="1.0" xmlns="http://www.w3.org/2000/svg"
 width="750.000000pt" height="750.000000pt" viewBox="0 0 750.000000 750.000000"
 preserveAspectRatio="xMidYMid meet">

<g transform="translate(0.000000,750.000000) scale(0.100000,-0.100000)"
fill="#000000" stroke="none">
<path d="M3133 6170 c-70 -22 -129 -128 -157 -283 -50 -272 -48 -570 8 -1115
21 -205 21 -213 3 -229 -28 -26 -39 -5 -87 157 -46 155 -178 541 -334 970 -89
246 -99 268 -136 302 -68 61 -156 60 -231 -2 -52 -42 -64 -98 -64 -285 0 -138
2 -156 28 -228 15 -42 27 -96 27 -120 1 -132 51 -364 137 -631 104 -326 105
-328 110 -551 6 -236 -12 -618 -33 -692 -19 -68 -57 -113 -94 -113 -54 0 -126
95 -360 475 -171 277 -268 373 -505 500 -69 37 -71 37 -161 32 -101 -6 -138
-20 -177 -67 -31 -37 -41 -80 -35 -159 8 -109 145 -353 351 -624 119 -157 206
-327 277 -547 37 -113 59 -165 85 -199 20 -25 175 -188 344 -361 l308 -315
172 -79 c133 -62 179 -88 207 -118 54 -60 176 -227 272 -372 47 -72 119 -177
159 -233 160 -221 348 -560 471 -848 82 -193 103 -264 104 -357 l1 -78 28 0
c36 0 43 23 34 119 -9 96 -32 170 -107 346 -124 289 -312 629 -471 848 -40 56
-100 143 -132 192 -80 125 -188 276 -262 367 l-63 78 64 0 c36 0 94 9 132 21
58 18 78 30 125 78 37 37 70 85 93 134 33 67 37 84 34 139 -2 48 -7 63 -18 63
-11 0 -17 -17 -21 -65 -7 -75 -23 -117 -73 -191 -64 -96 -158 -139 -300 -139
-80 0 -83 1 -250 77 l-169 78 -293 300 c-161 165 -309 321 -328 346 -27 34
-49 86 -86 199 -71 220 -158 390 -277 547 -132 174 -224 317 -290 451 -62 124
-73 179 -50 234 19 46 56 65 138 73 60 6 68 5 134 -31 238 -126 305 -194 497
-504 81 -129 165 -262 188 -294 32 -46 38 -61 28 -68 -7 -5 -32 -20 -55 -34
-43 -26 -127 -137 -120 -158 8 -24 37 -17 49 11 19 44 57 85 110 120 27 18 51
33 52 33 2 0 21 -18 44 -39 71 -68 136 -66 201 4 52 57 68 115 77 281 l6 131
34 -7 c19 -4 82 -32 141 -61 125 -63 197 -128 258 -233 41 -72 61 -89 71 -62
10 25 -82 161 -151 224 -35 31 -100 76 -146 100 -46 23 -91 47 -99 52 -8 5
-34 14 -57 20 l-41 10 -5 298 c-4 335 2 299 -110 648 -86 267 -136 499 -137
631 0 24 -12 78 -27 120 -24 68 -27 93 -28 198 0 155 15 217 60 245 18 11 48
20 66 20 67 0 80 -22 185 -310 153 -422 288 -813 334 -970 49 -166 71 -200
130 -200 28 0 44 8 69 34 l32 33 -25 249 c-48 472 -55 650 -35 877 20 233 68
396 126 434 32 21 102 21 135 -1 57 -37 96 -207 83 -366 -5 -66 2 -154 29
-390 48 -409 75 -687 83 -842 6 -122 8 -130 31 -149 31 -24 44 -24 67 1 18 19
18 35 1 428 -29 689 -32 897 -12 964 14 48 21 59 44 65 48 13 111 7 132 -12
24 -22 88 -216 125 -382 64 -284 90 -701 66 -1057 -12 -175 -12 -180 10 -248
14 -44 34 -83 55 -105 31 -32 38 -35 74 -30 27 3 50 0 72 -12 147 -78 173 -90
182 -81 14 14 -16 41 -98 84 -37 20 -73 39 -78 42 -5 3 -1 18 9 32 14 22 19
57 24 182 6 149 8 161 53 300 61 189 114 398 122 480 7 72 34 119 84 145 49
25 78 19 123 -25 l40 -41 -6 -194 c-13 -373 -57 -682 -133 -933 -23 -78 -24
-89 -13 -160 14 -96 14 -401 -1 -547 -24 -247 -67 -483 -136 -764 l-46 -185
27 -105 c139 -536 418 -1101 702 -1428 35 -40 95 -127 134 -195 83 -145 218
-417 249 -505 22 -60 24 -63 56 -63 19 0 34 2 34 4 0 22 -66 181 -130 311
-111 226 -210 394 -283 478 -281 322 -566 901 -698 1413 l-23 90 42 169 c66
273 107 506 133 750 9 92 11 298 6 623 -1 36 11 100 31 174 63 234 99 519 108
868 l6 225 -33 43 c-83 105 -192 105 -286 -2 -36 -41 -41 -53 -46 -113 -8 -84
-61 -290 -123 -483 -45 -139 -47 -151 -53 -300 -5 -127 -10 -160 -25 -182 -27
-40 -50 -35 -74 15 -38 80 -41 110 -30 255 15 200 4 662 -21 842 -38 285 -128
610 -182 661 -35 32 -90 44 -164 34 -72 -9 -101 -33 -121 -103 -15 -50 -16
-96 -10 -377 3 -176 8 -358 11 -405 3 -47 -13 66 -36 250 -31 258 -41 367 -40
475 3 326 -51 451 -196 461 -32 2 -72 -1 -90 -6z"/>
<path d="M3177 5130 c-21 -4 -43 -12 -49 -18 -17 -17 1 -34 32 -27 16 3 43 7
60 7 36 1 47 13 30 33 -13 16 -16 16 -73 5z"/>
<path d="M3155 5000 c-13 -21 12 -31 71 -28 44 2 59 7 59 18 0 19 -119 28
-130 10z"/>
<path d="M2468 4984 c-53 -28 -22 -57 32 -29 31 16 36 38 9 42 -8 1 -26 -4
-41 -13z"/>
<path d="M2566 4923 c-4 -4 -31 -10 -59 -13 -37 -4 -52 -9 -52 -20 0 -24 95
-26 125 -2 13 11 20 24 16 30 -8 14 -19 15 -30 5z"/>
<path d="M3700 4853 c-38 -20 -48 -50 -15 -45 76 12 90 18 90 37 0 27 -31 30
-75 8z"/>
<path d="M3735 4761 c-44 -4 -60 -10 -60 -21 0 -22 117 -27 134 -6 12 15 7 38
-7 34 -4 -1 -34 -4 -67 -7z"/>
<path d="M4255 4360 c-12 -20 7 -29 80 -39 47 -7 73 -7 80 0 14 14 -21 39 -54
39 -14 0 -42 3 -62 6 -23 4 -39 2 -44 -6z"/>
<path d="M1705 3831 c-33 -14 -78 -68 -72 -85 9 -24 23 -19 47 13 14 21 33 32
63 38 26 6 42 14 42 23 0 17 -49 24 -80 11z"/>
<path d="M1755 3760 c-10 -11 -32 -24 -49 -28 -40 -11 -41 -36 -1 -40 23 -2
40 6 70 31 23 20 36 38 31 45 -11 18 -31 15 -51 -8z"/>
<path d="M3734 1939 c-23 -37 134 -84 258 -76 88 5 162 23 179 43 22 26 -3 33
-61 17 -108 -32 -251 -23 -351 21 -10 4 -20 2 -25 -5z"/>
<path d="M4200 1875 c-7 -8 -17 -15 -22 -15 -6 0 -24 -10 -41 -22 -17 -12 -56
-27 -87 -34 -74 -14 -76 -39 -4 -39 43 1 64 8 125 46 71 43 92 70 58 77 -9 1
-22 -4 -29 -13z"/>
<path d="M3915 488 c-3 -8 6 -47 20 -88 15 -41 30 -97 35 -125 6 -27 14 -70
19 -95 6 -25 10 -75 11 -112 0 -61 2 -68 20 -68 18 0 20 7 20 73 -1 39 -5 92
-11 117 -5 25 -13 68 -18 95 -5 28 -22 86 -38 129 -27 77 -47 102 -58 74z"/>
</g>
</svg>
