<?xml version="1.0" encoding="UTF-8"?>
<!DOCTYPE svg PUBLIC "-//W3C//DTD SVG 1.1//EN" "http://www.w3.org/Graphics/SVG/1.1/DTD/svg11.dtd">
<svg xmlns="http://www.w3.org/2000/svg" version="1.1" width="750px" height="750px" style="shape-rendering:geometricPrecision; text-rendering:geometricPrecision; image-rendering:optimizeQuality; fill-rule:evenodd; clip-rule:evenodd" xmlns:xlink="http://www.w3.org/1999/xlink">
<g><path style="opacity:0.893" fill="#007acc" d="M 749.5,693.5 C 749.5,698.5 749.5,703.5 749.5,708.5C 713.255,672.087 677.089,635.421 641,598.5C 617.272,568.705 594.272,538.372 572,507.5C 556.661,473.489 550.494,437.822 553.5,400.5C 554.17,390.11 555.17,379.777 556.5,369.5C 554.59,354.18 548.256,341.013 537.5,330C 534.327,327.913 530.994,326.079 527.5,324.5C 526.888,331.552 526.054,338.552 525,345.5C 522.667,348.167 520.333,348.167 518,345.5C 517.942,341.358 518.109,337.191 518.5,333C 518.528,329.41 518.028,325.91 517,322.5C 505.343,302.524 492.677,283.19 479,264.5C 478.294,275.498 477.628,286.498 477,297.5C 475.155,301.795 472.488,302.462 469,299.5C 470.994,262.192 473.161,224.859 475.5,187.5C 475.333,181.167 475.167,174.833 475,168.5C 470.322,138.119 469.822,107.619 473.5,77C 473.167,76.1667 472.833,75.3333 472.5,74.5C 467.055,78.771 461.055,79.6043 454.5,77C 452,75.8333 450.167,74 449,71.5C 447.527,67.5826 446.361,63.5826 445.5,59.5C 441.44,68.395 438.606,77.7284 437,87.5C 434.33,104.176 431.663,120.843 429,137.5C 426.58,174.143 424.58,210.809 423,247.5C 421.204,257.626 415.704,264.793 406.5,269C 395.024,271.345 386.858,267.179 382,256.5C 372.208,231.124 363.208,205.457 355,179.5C 349.333,170.167 343.667,160.833 338,151.5C 328.333,128.5 318.667,105.5 309,82.5C 304.089,95.2027 295.256,99.036 282.5,94C 279.628,91.4634 277.128,88.6301 275,85.5C 275.897,95.2136 277.564,104.88 280,114.5C 288.532,146.296 297.532,177.963 307,209.5C 318.879,232.13 328.212,255.797 335,280.5C 335.758,314.47 336.425,348.47 337,382.5C 334.969,391.005 333.969,399.671 334,408.5C 331.667,411.167 329.333,411.167 327,408.5C 325.941,399.002 326.607,389.668 329,380.5C 329.793,362.789 329.293,345.123 327.5,327.5C 317.269,325.238 306.936,324.072 296.5,324C 289.781,324.77 284.614,327.937 281,333.5C 281.928,365.153 282.928,396.82 284,428.5C 284.395,432.019 285.395,435.352 287,438.5C 303.894,458.61 318.561,480.277 331,503.5C 343.704,521.543 359.538,536.043 378.5,547C 403.235,571.026 424.735,597.526 443,626.5C 462.995,648.495 483.661,669.828 505,690.5C 519.335,709.845 533.168,729.512 546.5,749.5C 542.167,749.5 537.833,749.5 533.5,749.5C 521.759,731.035 509.259,713.035 496,695.5C 474.995,675.161 454.661,654.161 435,632.5C 416.822,604.642 395.989,578.808 372.5,555C 356.913,545.765 343.08,534.265 331,520.5C 317.667,499.833 304.333,479.167 291,458.5C 284.846,452.682 279.846,446.015 276,438.5C 273.902,402.192 272.569,365.859 272,329.5C 276.285,321.104 283.118,316.271 292.5,315C 298.833,314.333 305.167,314.333 311.5,315C 316.792,316.16 322.125,316.993 327.5,317.5C 327.567,304.771 326.734,292.104 325,279.5C 316.361,253.908 306.361,228.908 295,204.5C 286.021,173.25 277.354,141.917 269,110.5C 265.516,96.613 264.85,82.613 267,68.5C 273.131,50.6737 284.631,46.1737 301.5,55C 309.606,63.3717 316.106,72.8717 321,83.5C 329.057,103.947 337.39,124.281 346,144.5C 352.333,155.5 358.667,166.5 365,177.5C 372.869,202.442 381.536,227.108 391,251.5C 395.341,261.027 401.341,262.36 409,255.5C 410.471,251.419 412.138,247.419 414,243.5C 415.564,203.784 417.897,164.117 421,124.5C 423.948,101.48 428.614,78.8132 435,56.5C 443.407,38.6317 456.24,34.465 473.5,44C 476.04,46.2047 478.207,48.7047 480,51.5C 481.091,60.1361 481.924,68.8028 482.5,77.5C 481.315,94.6597 480.315,111.826 479.5,129C 485.74,169.45 486.074,209.95 480.5,250.5C 483.476,254.644 486.643,258.644 490,262.5C 489.021,264.279 489.354,265.945 491,267.5C 501.338,282.662 511.838,297.662 522.5,312.5C 534.599,314.799 544.432,320.799 552,330.5C 555.339,336.536 558.672,342.536 562,348.5C 563.943,355.525 565.109,362.692 565.5,370C 562.292,394.088 561.792,418.255 564,442.5C 566.587,466.258 573.587,488.591 585,509.5C 606.575,536.986 627.909,564.653 649,592.5C 682.061,626.727 715.561,660.394 749.5,693.5 Z M 455.5,48.5 C 470.886,50.118 475.553,57.9513 469.5,72C 459.724,76.8608 453.558,74.0275 451,63.5C 450.333,59.5 450.333,55.5 451,51.5C 452.652,50.6006 454.152,49.6006 455.5,48.5 Z M 283.5,60.5 C 287.747,60.1778 291.747,61.0111 295.5,63C 299.939,67.4384 303.606,72.4384 306.5,78C 303.514,90.3104 296.181,94.3104 284.5,90C 273.038,80.5791 272.705,70.7457 283.5,60.5 Z"/></g>
</svg>
